<svg
        xmlns="http://www.w3.org/2000/svg"
        xmlns:xlink="http://www.w3.org/1999/xlink"
        aria-hidden="true"
        role="img"
        class="iconify iconify--logos"
        width="64"
        height="64"
        preserveAspectRatio="xMidYMid meet"
        viewBox="0 0 24 24">
    <path fill="00D8FF"
          d="M12 0C5.37 0 0 5.37 0 12a12 12 0 008.21 11.44c.6.11.82-.26.82-.58v-2.03
    c-3.34.73-4.04-1.61-4.04-1.61-.55-1.4-1.34-1.77-1.34-1.77-1.1-.76.08-.74.08-.74
    1.22.08 1.86 1.25 1.86 1.25 1.08 1.85 2.83 1.32 3.52 1.01.11-.78.43-1.32.77-1.62
    -2.67-.3-5.47-1.33-5.47-5.91 0-1.3.46-2.36 1.23-3.19-.12-.3-.54-1.52.12-3.17 0 0
    1-.32 3.3 1.22a11.45 11.45 0 016 0c2.3-1.54 3.3-1.22 3.3-1.22.66 1.65.24 2.87.12
    3.17.77.83 1.23 1.89 1.23 3.19 0 4.6-2.81 5.61-5.49 5.9.44.38.82 1.13.82 2.29v3.4
    c0 .32.21.7.82.58A12 12 0 0024 12c0-6.63-5.37-12-12-12z">
    </path>
</svg>